<svg data-v-0dd9719b="" version="1.0" xmlns="http://www.w3.org/2000/svg" xmlns:xlink="http://www.w3.org/1999/xlink" width="100%" height="100%" viewBox="0 0 340.000000 250.000000" preserveAspectRatio="xMidYMid meet" color-interpolation-filters="sRGB" style="margin: auto;"> <rect data-v-0dd9719b="" x="0" y="0" width="100%" height="100%" fill="#fff" fill-opacity="1" class="background"></rect> <rect data-v-0dd9719b="" x="0" y="0" width="100%" height="100%" fill="url(#watermark)" fill-opacity="1" class="watermarklayer"></rect> <g data-v-0dd9719b="" fill="#333" class="icon-text-wrapper icon-svg-group iconsvg" transform="translate(48.599998474121094,96.22026062011719)"><g class="iconsvg-imagesvg" transform="translate(0,0)"><g><rect fill="#333" fill-opacity="0" stroke-width="2" x="0" y="0" width="60" height="57.559478127398314" class="image-rect"></rect> <svg x="0" y="0" width="60" height="57.559478127398314" filtersec="colorsb9750241439" class="image-svg-svg primary" style="overflow: visible;"><svg xmlns="http://www.w3.org/2000/svg" viewBox="0 0 104.239990234375 100"><defs><linearGradient id="ad5f5c186-26bd-4a05-9b8c-e3250d79201f" x1="42.16" y1="39.23" x2="56.62" y2="56.28" gradientUnits="userSpaceOnUse"><stop offset="0" stop-color="#4cd9df"></stop><stop offset="1" stop-color="#00c9d2"></stop></linearGradient></defs><title>资源 146</title><path d="M94.27 27.64C87.55 20.45 78 16.8 65.93 16.8h-5.76a46.63 46.63 0 0 1 1.56 12.79V31h4.22c8.11 0 14 2.07 18 6.33S90 48.81 90 58.55s-2 16.72-6.08 21-9.87 6.27-18 6.27h-9.4c-8.13 0-14-2-18-6.27s-6-11.08-6.08-20.47h-6.23a36 36 0 0 1-8-.82v.3c0 13.41 3.35 23.76 10 30.74S44.46 100 56.53 100h9.4c12.07 0 21.59-3.6 28.31-10.71s10-17.33 10-30.74-3.37-23.85-9.97-30.91z" fill="#3018d0"></path><path d="M56.52 31a33.54 33.54 0 0 0-9.05 1.12 18.78 18.78 0 0 0-8.91 5.22 20.13 20.13 0 0 0-4.26 7.55 44.19 44.19 0 0 0-1.86 13.67v.52h3.16c8.74 0 15.41-2.6 19.84-7.72C59.47 46.7 61.52 40 61.71 31z" fill="url(#ad5f5c186-26bd-4a05-9b8c-e3250d79201f)"></path><path d="M56.52 16.8h3.64a23.75 23.75 0 0 0-4.61-9C51.15 2.63 44.44 0 35.61 0h-9.4c-8.81 0-15.53 2.63-20 7.8C2 12.72 0 19.88 0 29.69S2 46.54 6.22 51.4a21.61 21.61 0 0 0 12 6.85A62.86 62.86 0 0 1 19.84 44a35.7 35.7 0 0 1 8.34-16.32A33.18 33.18 0 0 1 45.4 18a49.43 49.43 0 0 1 11.12-1.2z" fill="#5accd7"></path></svg></svg> <!----></g></g> <g transform="translate(67,1.9484901428222656)"><g data-gra="path-name" fill-rule="" class="tp-name iconsvg-namesvg" transform="translate(0,0)"><g transform="scale(1)"><g><path d="M33 1.73Q33.45 2.06 33.45 2.59L33.45 2.59Q33.45 2.96 33.28 3.17L33.28 3.17Q33 3.62 32.42 3.62L32.42 3.62Q32.13 3.62 31.84 3.46L31.84 3.46Q26-0.16 22.77-3.64 19.54-7.12 18.02-12.1L18.02-12.1Q17.12-8.72 15.33-6.09 13.54-3.46 10.94-1.25 8.35 0.95 4.44 3.46L4.44 3.46Q4.16 3.62 3.87 3.62L3.87 3.62Q3.29 3.62 3 3.17L3 3.17Q2.84 2.96 2.84 2.59L2.84 2.59Q2.84 2.06 3.29 1.73L3.29 1.73Q7.78-1.32 10.33-3.58 12.88-5.84 14.46-8.68 16.05-11.52 16.62-15.59L16.62-15.59 3.41-15.59Q2.92-15.59 2.65-15.92 2.39-16.25 2.39-16.62L2.39-16.62Q2.39-16.99 2.65-17.32 2.92-17.65 3.41-17.65L3.41-17.65 16.79-17.65 16.79-27.48 5.39-27.48Q4.9-27.48 4.63-27.81 4.36-28.14 4.36-28.51L4.36-28.51Q4.36-28.88 4.63-29.21 4.9-29.54 5.39-29.54L5.39-29.54 30.45-29.54Q30.94-29.54 31.21-29.21 31.47-28.88 31.47-28.51L31.47-28.51Q31.47-28.14 31.21-27.81 30.94-27.48 30.45-27.48L30.45-27.48 18.84-27.48 18.84-17.65 32.38-17.65Q32.87-17.65 33.14-17.32 33.41-16.99 33.41-16.62L33.41-16.62Q33.41-16.25 33.14-15.92 32.87-15.59 32.38-15.59L32.38-15.59 19.25-15.59Q20.08-11.56 21.74-8.68 23.41-5.8 26.02-3.48 28.64-1.15 33 1.73L33 1.73ZM60.69-14.48L57.93-14.48 57.93-10.57 67.1-10.57Q67.6-10.57 67.87-10.24 68.13-9.92 68.13-9.55L68.13-9.55Q68.13-9.17 67.87-8.85 67.6-8.52 67.1-8.52L67.1-8.52 57.93-8.52 57.93-4.16 68.71-4.16Q69.2-4.16 69.47-3.83 69.74-3.5 69.74-3.13L69.74-3.13Q69.74-2.76 69.47-2.43 69.2-2.1 68.71-2.1L68.71-2.1 57.93-2.1 57.93 2.92Q57.93 3.41 57.6 3.68 57.27 3.95 56.9 3.95L56.9 3.95Q56.53 3.95 56.2 3.68 55.87 3.41 55.87 2.92L55.87 2.92 55.87-2.1 46.78-2.1Q46.29-2.1 46.02-2.43 45.75-2.76 45.75-3.13L45.75-3.13Q45.75-3.5 46.02-3.83 46.29-4.16 46.78-4.16L46.78-4.16 55.87-4.16 55.87-8.52 48.01-8.52Q47.52-8.52 47.25-8.85 46.99-9.17 46.99-9.55L46.99-9.55Q46.99-9.92 47.25-10.24 47.52-10.57 48.01-10.57L48.01-10.57 55.87-10.57 55.87-14.48 48.63-14.48Q48.14-14.48 47.87-14.81 47.6-15.14 47.6-15.51L47.6-15.51Q47.6-15.88 47.87-16.21 48.14-16.54 48.63-16.54L48.63-16.54 55.87-16.54 55.87-20.74 47.27-20.74Q46.78-20.74 46.51-21.07 46.24-21.39 46.24-21.76L46.24-21.76Q46.24-22.13 46.51-22.46 46.78-22.79 47.27-22.79L47.27-22.79 55.87-22.79 55.87-26.99 48.84-26.99Q48.34-26.99 48.08-27.32 47.81-27.65 47.81-28.02L47.81-28.02Q47.81-28.39 48.08-28.72 48.34-29.05 48.84-29.05L48.84-29.05 55.87-29.05 55.87-31.97Q55.87-32.46 56.2-32.73 56.53-33 56.9-33L56.9-33Q57.27-33 57.6-32.73 57.93-32.46 57.93-31.97L57.93-31.97 57.93-29.05 60.69-29.05Q63.89-29.05 65.38-27.42 66.86-25.8 66.86-23.25L66.86-23.25 66.86-22.79 69.16-22.79Q69.65-22.79 69.92-22.46 70.19-22.13 70.19-21.76L70.19-21.76Q70.19-21.39 69.92-21.07 69.65-20.74 69.16-20.74L69.16-20.74 66.86-20.74 66.86-20.28Q66.86-17.73 65.38-16.11 63.89-14.48 60.69-14.48L60.69-14.48ZM46.41-25.01Q46.16-24.69 45.67-24.69L45.67-24.69Q45.22-24.69 44.97-24.93L44.97-24.93 40.16-29.21Q39.79-29.54 39.79-29.95L39.79-29.95Q39.79-30.36 40.07-30.65L40.07-30.65Q40.32-30.98 40.81-30.98L40.81-30.98Q41.27-30.98 41.51-30.73L41.51-30.73 46.33-26.45Q46.7-26.17 46.7-25.71L46.7-25.71Q46.7-25.3 46.41-25.01L46.41-25.01ZM57.93-26.99L57.93-22.79 64.8-22.79 64.8-23.04Q64.8-24.64 63.81-25.82 62.83-26.99 60.27-26.99L60.27-26.99 57.93-26.99ZM44.72-16.87Q45.09-16.58 45.09-16.13L45.09-16.13Q45.09-15.72 44.8-15.43L44.8-15.43Q44.56-15.1 44.06-15.1L44.06-15.1Q43.61-15.1 43.36-15.35L43.36-15.35 38.26-19.87Q37.89-20.2 37.89-20.61L37.89-20.61Q37.89-21.02 38.18-21.31L38.18-21.31Q38.43-21.64 38.92-21.64L38.92-21.64Q39.37-21.64 39.62-21.39L39.62-21.39 44.72-16.87ZM57.93-20.74L57.93-16.54 60.27-16.54Q62.83-16.54 63.81-17.71 64.8-18.88 64.8-20.49L64.8-20.49 64.8-20.74 57.93-20.74ZM44.15-11.64Q44.52-11.48 44.74-11.15 44.97-10.82 44.85-10.37L44.85-10.37 41.39 2.67Q41.23 3.13 40.85 3.31 40.48 3.5 40.11 3.41L40.11 3.41Q39.74 3.25 39.52 2.92 39.29 2.59 39.41 2.14L39.41 2.14 42.87-10.9Q43.04-11.36 43.41-11.54 43.78-11.73 44.15-11.64L44.15-11.64ZM89.4-28.64L88.09-31.52Q88-31.68 88-31.97L88-31.97Q88-32.67 88.58-32.87L88.58-32.87Q88.83-32.96 89.03-32.96L89.03-32.96Q89.69-32.96 89.94-32.38L89.94-32.38 91.25-29.5Q91.34-29.33 91.34-29.05L91.34-29.05Q91.34-28.76 91.17-28.49 91.01-28.22 90.76-28.14L90.76-28.14Q90.51-28.06 90.31-28.06L90.31-28.06Q89.69-28.06 89.4-28.64L89.4-28.64ZM104.83-27.52Q105.33-27.52 105.59-27.2 105.86-26.87 105.86-26.5L105.86-26.5Q105.86-26.13 105.59-25.8 105.33-25.47 104.83-25.47L104.83-25.47 91.01-25.47 91.01-18.84 96.4-18.84Q99.52-18.84 101.05-17.12 102.57-15.39 102.57-13.04L102.57-13.04 102.57-4.65Q102.57-2.96 101.54-2.04 100.51-1.11 98.87-1.03L98.87-1.03Q98.41-0.99 98.13-1.32 97.84-1.65 97.84-2.02L97.84-2.02Q97.84-2.92 98.74-3.09L98.74-3.09Q99.81-3.29 100.16-3.83 100.51-4.36 100.51-5.88L100.51-5.88 100.51-12.84Q100.51-14.44 99.52-15.61 98.54-16.79 95.99-16.79L95.99-16.79 91.01-16.79 91.01 3.09Q91.01 3.58 90.68 3.85 90.35 4.11 89.98 4.11L89.98 4.11Q89.61 4.11 89.28 3.85 88.95 3.58 88.95 3.09L88.95 3.09 88.95-16.79 83.97-16.79Q81.42-16.79 80.43-15.61 79.45-14.44 79.45-12.84L79.45-12.84 79.45-1.07Q79.45-0.58 79.12-0.31 78.79-0.04 78.42-0.04L78.42-0.04Q78.05-0.04 77.72-0.31 77.39-0.58 77.39-1.07L77.39-1.07 77.39-13.04Q77.39-15.39 78.91-17.12 80.43-18.84 83.56-18.84L83.56-18.84 88.95-18.84 88.95-25.47 75.13-25.47Q74.63-25.47 74.37-25.8 74.1-26.13 74.1-26.5L74.1-26.5Q74.1-26.87 74.37-27.2 74.63-27.52 75.13-27.52L75.13-27.52 104.83-27.52ZM141.24-17.28Q141.74-17.28 142-16.95 142.27-16.62 142.27-16.25L142.27-16.25Q142.27-15.88 142-15.55 141.74-15.22 141.24-15.22L141.24-15.22 119.56-15.22Q119.07-15.22 118.8-15.55 118.53-15.88 118.53-16.25L118.53-16.25Q118.53-16.62 118.8-16.95 119.07-17.28 119.56-17.28L119.56-17.28 129.93-17.28 129.93-24.03 123.47-24.03Q122.52-21.56 121.7-19.91L121.7-19.91Q121.37-19.25 120.75-19.25L120.75-19.25Q120.63-19.25 120.38-19.34L120.38-19.34Q119.68-19.71 119.68-20.28L119.68-20.28Q119.68-20.45 119.81-20.69L119.81-20.69Q122.11-25.51 123.22-30.53L123.22-30.53Q123.35-30.98 123.74-31.17 124.13-31.35 124.5-31.23L124.5-31.23Q124.83-31.1 125.05-30.77 125.28-30.45 125.2-29.99L125.2-29.99Q124.75-27.94 124.17-26.08L124.17-26.08 129.93-26.08 129.93-31.76Q129.93-32.26 130.26-32.52 130.59-32.79 130.96-32.79L130.96-32.79Q131.33-32.79 131.66-32.52 131.99-32.26 131.99-31.76L131.99-31.76 131.99-26.08 139.84-26.08Q140.34-26.08 140.61-25.76 140.87-25.43 140.87-25.06L140.87-25.06Q140.87-24.69 140.61-24.36 140.34-24.03 139.84-24.03L139.84-24.03 131.99-24.03 131.99-17.28 141.24-17.28ZM118.41-26.21Q118.82-25.92 118.82-25.43L118.82-25.43Q118.82-25.01 118.57-24.77L118.57-24.77Q118.49-24.6 118.27-24.5 118.04-24.4 117.79-24.4L117.79-24.4Q117.38-24.4 117.13-24.6L117.13-24.6 112.11-28.64Q111.7-28.92 111.7-29.42L111.7-29.42Q111.7-29.83 111.95-30.08L111.95-30.08Q112.03-30.24 112.26-30.34 112.48-30.45 112.73-30.45L112.73-30.45Q113.14-30.45 113.39-30.24L113.39-30.24 118.41-26.21ZM116.97-16.95Q117.38-16.7 117.38-16.17L117.38-16.17Q117.38-15.8 117.17-15.51L117.17-15.51Q116.89-15.14 116.39-15.14L116.39-15.14Q115.98-15.14 115.73-15.35L115.73-15.35 110.55-19.67Q110.14-19.91 110.14-20.45L110.14-20.45Q110.14-20.82 110.35-21.11L110.35-21.11Q110.63-21.48 111.13-21.48L111.13-21.48Q111.54-21.48 111.79-21.27L111.79-21.27 116.97-16.95ZM116.35-10.9Q116.72-10.74 116.95-10.41 117.17-10.08 117.05-9.63L117.05-9.63 113.47 2.92Q113.31 3.37 112.94 3.56 112.57 3.74 112.2 3.66L112.2 3.66Q111.83 3.5 111.6 3.17 111.37 2.84 111.5 2.39L111.5 2.39 115.08-10.16Q115.24-10.61 115.61-10.8 115.98-10.99 116.35-10.9L116.35-10.9ZM132.81-10.24Q134.78-10.24 136.18-9.32 137.58-8.39 138.28-6.93 138.98-5.47 138.98-3.83L138.98-3.83 138.98-3.04Q138.98-1.4 138.28 0.06 137.58 1.52 136.18 2.45 134.78 3.37 132.81 3.37L132.81 3.37 127.58 3.37Q124.62 3.37 123.02 1.56 121.41-0.25 121.41-3.04L121.41-3.04 121.41-3.83Q121.41-6.62 123.02-8.43 124.62-10.24 127.58-10.24L127.58-10.24 132.81-10.24ZM136.92-3.25L136.92-3.62Q136.92-5.43 135.79-6.81 134.66-8.19 132.4-8.19L132.4-8.19 128-8.19Q125.69-8.19 124.58-6.83 123.47-5.47 123.47-3.62L123.47-3.62 123.47-3.25Q123.47-1.4 124.58-0.04 125.69 1.32 128 1.32L128 1.32 132.4 1.32Q134.66 1.32 135.79-0.06 136.92-1.44 136.92-3.25L136.92-3.25ZM177.16-28.27Q177.65-28.27 177.92-27.94 178.19-27.61 178.19-27.24L178.19-27.24Q178.19-26.87 177.92-26.54 177.65-26.21 177.16-26.21L177.16-26.21 168.52-26.21 168.52-23.86Q168.52-23.37 168.19-23.1 167.86-22.83 167.49-22.83L167.49-22.83Q167.12-22.83 166.79-23.1 166.46-23.37 166.46-23.86L166.46-23.86 166.46-26.21 157.58-26.21 157.58-23.82Q157.58-23.33 157.25-23.06 156.92-22.79 156.55-22.79L156.55-22.79Q156.18-22.79 155.85-23.06 155.52-23.33 155.52-23.82L155.52-23.82 155.52-26.21 146.8-26.21Q146.3-26.21 146.04-26.54 145.77-26.87 145.77-27.24L145.77-27.24Q145.77-27.61 146.04-27.94 146.3-28.27 146.8-28.27L146.8-28.27 155.52-28.27 155.52-31.8Q155.52-32.3 155.85-32.56 156.18-32.83 156.55-32.83L156.55-32.83Q156.92-32.83 157.25-32.56 157.58-32.3 157.58-31.8L157.58-31.8 157.58-28.27 166.46-28.27 166.46-31.8Q166.46-32.3 166.79-32.56 167.12-32.83 167.49-32.83L167.49-32.83Q167.86-32.83 168.19-32.56 168.52-32.3 168.52-31.8L168.52-31.8 168.52-28.27 177.16-28.27ZM175.76-14.32Q175.39-14.32 175.1-14.56 174.82-14.81 174.82-15.22L174.82-15.22 174.82-16.13Q174.82-17.36 173.85-18.16 172.88-18.97 171.03-18.97L171.03-18.97 152.6-18.97Q149.18-18.97 149.18-16.13L149.18-16.13 149.18-15.22Q149.18-14.81 148.9-14.56 148.61-14.32 148.28-14.32L148.28-14.32Q147.91-14.32 147.62-14.56 147.33-14.81 147.33-15.22L147.33-15.22 147.33-16.5Q147.33-18.35 148.59-19.58 149.84-20.82 152.23-20.82L152.23-20.82 171.4-20.82Q173.83-20.82 175.25-19.56 176.67-18.31 176.67-16.5L176.67-16.5 176.67-15.22Q176.67-14.81 176.38-14.56 176.09-14.32 175.76-14.32L175.76-14.32ZM176.91-0.25Q177.24-0.12 177.39 0.12 177.53 0.37 177.53 0.66L177.53 0.66Q177.53 0.82 177.45 1.07L177.45 1.07Q177.37 1.32 177.12 1.5 176.87 1.69 176.54 1.69L176.54 1.69Q176.46 1.69 176.13 1.6L176.13 1.6Q172.76 0.33 169.24-2.1 165.72-4.53 163.01-7.41L163.01-7.41 163.01 3.13Q163.01 3.62 162.68 3.89 162.35 4.16 161.98 4.16L161.98 4.16Q161.61 4.16 161.28 3.89 160.95 3.62 160.95 3.13L160.95 3.13 160.95-7.45Q156.05-2.22 147.95 1.52L147.95 1.52Q147.83 1.6 147.54 1.6L147.54 1.6Q147.21 1.6 146.92 1.42 146.63 1.23 146.55 0.99L146.55 0.99Q146.47 0.74 146.47 0.58L146.47 0.58Q146.47-0.08 147.13-0.37L147.13-0.37Q151.49-2.47 154.74-4.69 157.99-6.91 160.54-10.04L160.54-10.04 147.62-10.04Q147.13-10.04 146.86-10.37 146.59-10.7 146.59-11.07L146.59-11.07Q146.59-11.44 146.86-11.77 147.13-12.1 147.62-12.1L147.62-12.1 160.95-12.1 160.95-15.43Q160.95-15.92 161.28-16.19 161.61-16.46 161.98-16.46L161.98-16.46Q162.35-16.46 162.68-16.19 163.01-15.92 163.01-15.43L163.01-15.43 163.01-12.1 176.3-12.1Q176.79-12.1 177.06-11.77 177.33-11.44 177.33-11.07L177.33-11.07Q177.33-10.7 177.06-10.37 176.79-10.04 176.3-10.04L176.3-10.04 163.3-10.04Q165.81-6.95 169.39-4.4 172.96-1.85 176.91-0.25L176.91-0.25Z" transform="translate(-2.390000104904175, 33)"></path></g> <!----> <!----> <!----> <!----> <!----> <!----> <!----></g></g> <g data-gra="path-slogan" fill-rule="" class="tp-slogan iconsvg-slogansvg" fill="#333" transform="translate(5,43.15999984741211)"><rect x="0" height="1" y="4.75" width="23.979999542236328"></rect> <rect height="1" y="4.75" width="23.979999542236328" x="141.82000350952148"></rect> <g transform="translate(26.979999542236328,0)"><g transform="scale(1)"><path d="M2.06-5.06L6.56-5.06L6.56-8.58L7.73-8.58L7.73 0L6.56 0L6.56-3.98L2.06-3.98L2.06 0L0.89 0L0.89-8.58L2.06-8.58L2.06-5.06ZM15.19 0L14.34-2.48L10.88-2.48L9.98 0L8.81 0L12.05-8.58L13.36-8.58L16.45 0L15.19 0ZM12.61-7.31L11.25-3.52L13.92-3.52L12.66-7.31L12.61-7.31ZM24.28-4.27L24.28-4.27Q24.09-7.64 21.28-7.83L21.28-7.83Q18.42-7.69 18.28-4.27L18.28-4.27Q18.42-0.94 21.28-0.80L21.28-0.80Q24.09-0.98 24.28-4.27ZM25.45-4.27L25.45-4.27Q25.17 0 21.28 0.14L21.28 0.14Q17.34 0 17.06-4.27L17.06-4.27Q17.30-8.72 21.28-8.81L21.28-8.81Q25.17-8.67 25.45-4.27ZM30.94-3.70L28.13-3.70L28.13 0L26.95 0L26.95-8.58L30.94-8.58Q33.80-8.58 33.80-6.28L33.80-6.28Q33.80-4.88 32.58-4.22L32.58-4.22Q33.61-3.94 33.61-2.58L33.61-2.58L33.70-1.03Q33.66-0.38 34.13-0.19L34.13-0.19L34.13 0L32.67 0Q32.53-0.61 32.48-2.16L32.48-2.16Q32.53-3.70 30.94-3.70L30.94-3.70ZM31.03-7.64L28.13-7.64L28.13-4.69L30.84-4.69Q32.58-4.69 32.58-6.19L32.58-6.19Q32.58-7.64 31.03-7.64L31.03-7.64ZM42.23-4.27L42.23-4.27Q42.05-7.64 39.23-7.83L39.23-7.83Q36.38-7.69 36.23-4.27L36.23-4.27Q36.38-0.94 39.23-0.80L39.23-0.80Q42.05-0.98 42.23-4.27ZM43.41-4.27L43.41-4.27Q43.13 0 39.23 0.14L39.23 0.14Q35.30 0 35.02-4.27L35.02-4.27Q35.25-8.72 39.23-8.81L39.23-8.81Q43.13-8.67 43.41-4.27ZM46.17-8.58L50.48-1.64L50.48-8.58L51.61-8.58L51.61 0L50.30 0L45.94-6.94L45.89-6.94L45.89 0L44.77 0L44.77-8.58L46.17-8.58ZM59.81-3.61L57.19-3.61L57.19-4.59L60.94-4.59L60.94 0L60.19 0L59.91-1.08Q58.92 0.09 57.09 0.14L57.09 0.14Q55.36 0.14 54.42-0.75L54.42-0.75Q53.02-2.06 53.06-4.36L53.06-4.36Q53.39-8.63 57.14-8.81L57.14-8.81Q60.33-8.63 60.80-6L60.80-6L59.67-6Q59.20-7.78 57.09-7.83L57.09-7.83Q54.42-7.64 54.28-4.31L54.28-4.31Q54.28-0.75 57.14-0.75L57.14-0.75Q58.17-0.75 58.92-1.31L58.92-1.31Q59.86-2.06 59.81-3.61L59.81-3.61ZM63.52 0L62.86 0L62.86-1.27L64.13-1.27L64.13-0.09Q64.13 1.45 62.86 1.69L62.86 1.69L62.86 1.08Q63.52 0.98 63.52 0L63.52 0ZM71.58-7.59L68.67-7.59L68.67-8.58L75.61-8.58L75.61-7.59L72.70-7.59L72.70 0L71.58 0L71.58-7.59ZM76.83-8.58L78-8.58L78 0L76.83 0L76.83-8.58ZM85.64 0L84.80-2.48L81.33-2.48L80.44 0L79.27 0L82.50-8.58L83.81-8.58L86.91 0L85.64 0ZM83.06-7.31L81.70-3.52L84.38-3.52L83.11-7.31L83.06-7.31ZM89.34-8.58L93.66-1.64L93.66-8.58L94.78-8.58L94.78 0L93.47 0L89.11-6.94L89.06-6.94L89.06 0L87.94 0L87.94-8.58L89.34-8.58ZM95.86-1.92L95.86-2.77L96.94-2.77L96.94-2.16Q96.94-0.75 98.25-0.75L98.25-0.75Q99.61-0.75 99.61-2.25L99.61-2.25L99.61-8.58L100.78-8.58L100.78-2.30Q100.73 0.09 98.30 0.14L98.30 0.14Q96 0.09 95.86-1.92L95.86-1.92ZM102.75-8.58L103.92-8.58L103.92 0L102.75 0L102.75-8.58ZM107.30-8.58L111.61-1.64L111.61-8.58L112.73-8.58L112.73 0L111.42 0L107.06-6.94L107.02-6.94L107.02 0L105.89 0L105.89-8.58L107.30-8.58Z" transform="translate(-0.890625, 8.8125)"></path></g></g></g></g></g><defs v-gra="od"></defs></svg>